<svg xmlns="http://www.w3.org/2000/svg" xmlns:xlink="http://www.w3.org/1999/xlink" width="1500" zoomAndPan="magnify" viewBox="0 0 1125 1124.99995" height="1500" preserveAspectRatio="xMidYMid meet" version="1.0"><defs><clipPath id="97d448a701"><path d="M 0 75 L 1124.503906 75 L 1124.503906 1050 L 0 1050 Z M 0 75 " clip-rule="nonzero"/></clipPath><clipPath id="a7e8d0929a"><path d="M 102.535156 961.632812 L 1020.699219 961.632812 L 1020.699219 1050.46875 L 102.535156 1050.46875 Z M 102.535156 961.632812 " clip-rule="nonzero"/></clipPath></defs><g clip-path="url(#97d448a701)"><path fill="#000000" d="M 562.625 298.667969 L 996.136719 1049.527344 L 1125.152344 1049.527344 L 562.625 75.207031 L 0.09375 1049.527344 L 129.109375 1049.527344 L 562.625 298.667969 " fill-opacity="1" fill-rule="nonzero"/></g><path fill="#000000" d="M 562.625 673.109375 L 779.957031 1049.527344 L 908.960938 1049.527344 L 562.625 449.648438 L 216.285156 1049.527344 L 345.289062 1049.527344 L 562.625 673.109375 " fill-opacity="1" fill-rule="nonzero"/><g clip-path="url(#a7e8d0929a)"><path fill="#000000" d="M 102.535156 961.632812 L 1020.71875 961.632812 L 1020.71875 1050.46875 L 102.535156 1050.46875 Z M 102.535156 961.632812 " fill-opacity="1" fill-rule="nonzero"/></g></svg>